<svg width="43" height="58" viewBox="0 0 43 58" fill="none" xmlns="http://www.w3.org/2000/svg">
<path d="M21.3315 0C20.5496 0 19.7683 0.379 19.3107 1.14167L18.4232 2.62917C18.0392 3.26917 17.4046 3.69957 16.6857 3.89583C16.6771 3.89797 16.6692 3.90203 16.6607 3.90417C15.9332 4.1047 15.1615 4.0461 14.5023 3.67917L12.9898 2.8375C11.4346 1.9735 9.5197 3.077 9.48983 4.85833L9.4565 6.61667C9.4437 7.35907 9.11463 8.04807 8.58983 8.575C8.58343 8.57927 8.57743 8.58527 8.57317 8.59167C8.04837 9.1186 7.35723 9.44553 6.61483 9.45833L4.8565 9.4875C3.0773 9.51737 1.97167 11.4343 2.83567 12.9917L3.6815 14.5125C4.04417 15.1674 4.1049 15.9331 3.9065 16.6542C3.9001 16.667 3.89827 16.6789 3.894 16.6917C3.69987 17.4063 3.26927 18.0348 2.63567 18.4167L1.144 19.3125C-0.381333 20.2277 -0.381333 22.439 1.144 23.3542L2.63567 24.25C3.2714 24.6319 3.69987 25.2603 3.894 25.975C3.89827 25.9878 3.89807 26.0017 3.90233 26.0167C4.10073 26.7377 4.04417 27.5055 3.6815 28.1583L2.83567 29.6792C1.97167 31.2344 3.07517 33.1493 4.8565 33.1792L6.61483 33.2083C7.35937 33.2211 8.04837 33.5544 8.57317 34.0792L8.58983 34.0958C9.11677 34.6206 9.4437 35.3118 9.4565 36.0542L9.48567 37.8083C9.51553 39.5875 11.4346 40.6952 12.9898 39.8333L14.5107 38.9875C15.1656 38.6248 15.9313 38.5641 16.6523 38.7625C16.6651 38.7668 16.677 38.7707 16.6898 38.775C17.4045 38.9691 18.033 39.3976 18.4148 40.0333L19.3107 41.525C20.2259 43.0503 22.4371 43.0503 23.3523 41.525L24.2482 40.0333C24.63 39.3976 25.2585 38.9691 25.9732 38.775C25.986 38.7707 26.002 38.7668 26.0148 38.7625C26.7359 38.5641 27.5037 38.6248 28.1565 38.9875L29.6773 39.8333C31.2325 40.6973 33.1475 39.5897 33.1773 37.8083L33.2065 36.0542C33.2193 35.3096 33.5525 34.6206 34.0773 34.0958L34.094 34.0792C34.6188 33.5522 35.3099 33.2211 36.0523 33.2083L37.8065 33.1792C39.5857 33.1493 40.6934 31.2344 39.8315 29.6792L38.9857 28.1583C38.623 27.5034 38.5623 26.7377 38.7607 26.0167C38.7649 26.0039 38.7689 25.9878 38.7732 25.975C38.9673 25.2603 39.3958 24.6319 40.0315 24.25L41.5232 23.3542C43.0485 22.4368 43.0485 20.2298 41.5232 19.3125L40.0315 18.4167C39.3958 18.0348 38.9673 17.4063 38.7732 16.6917C38.7689 16.6789 38.7649 16.6628 38.7607 16.65C38.5623 15.9289 38.623 15.1611 38.9857 14.5083L39.8315 12.9875C40.6955 11.4323 39.5878 9.51737 37.8065 9.4875L36.0523 9.45833C35.3078 9.44553 34.6188 9.1123 34.094 8.5875L34.0773 8.57083C33.5504 8.04603 33.2193 7.3549 33.2065 6.6125L33.1773 4.85833C33.1475 3.07913 31.2325 1.97147 29.6773 2.83333L28.1565 3.67917C27.5016 4.04183 26.7359 4.10257 26.0148 3.90417C26.002 3.8999 25.986 3.89593 25.9732 3.89167C25.2585 3.69753 24.63 3.26693 24.2482 2.63333L23.3523 1.14167C22.8947 0.379 22.1134 0 21.3315 0ZM29.8648 14.9333C30.4104 14.9333 30.9561 15.1413 31.3732 15.5583C32.2073 16.3925 32.2073 17.7409 31.3732 18.575L21.644 28.3042C21.2429 28.7052 20.701 28.9292 20.1357 28.9292C19.5703 28.9292 19.0263 28.7052 18.6273 28.3042L13.394 23.0708C12.5599 22.2367 12.5599 20.8883 13.394 20.0542C14.2281 19.22 15.5765 19.22 16.4107 20.0542L20.1357 23.7792L28.3565 15.5583C28.7736 15.1413 29.3192 14.9333 29.8648 14.9333ZM5.86067 40.5667L1.15233 51.8458L9.42317 51.1208L14.9315 57.6L19.4982 46.6625C17.9088 46.2081 16.5334 45.1887 15.6523 43.7167L15.4315 43.35L15.0607 43.5583C14.0751 44.1045 12.966 44.3917 11.8482 44.3917C9.21564 44.3917 6.9252 42.8173 5.86067 40.5667ZM36.8023 40.5667C35.7378 42.8173 33.4474 44.3958 30.8148 44.3958C29.6991 44.3958 28.5879 44.1066 27.6023 43.5583L27.2315 43.35L27.0107 43.7167C26.1275 45.1865 24.75 46.2102 23.1607 46.6625L27.7315 57.6L33.2398 51.125L41.5107 51.8458L36.8023 40.5667Z" fill="#B5B5B5"/>
</svg>
