<svg xmlns="http://www.w3.org/2000/svg" viewBox="0 0 500 500"><g id="freepik--background-simple--inject-124"><path d="M265,78.55l0,0C249,67.89,224.76,67.3,208,73.36c-30,10.84-26,35-52,52s-51,11-76,33.06-27.26,63.81-17,83.34,22,33.86,12,67.47-9,72.65,31,93.2,71-23.26,97-14.25,75,48.9,129,37,30-52.84,65-64.49,55-51.87,43-94.34S398,215.71,405,189c5.28-20.17,12.36-39.58-1.1-59C386.53,104.94,356.8,94.19,328,96.73c-10.73,1-23,1.33-34.21-1.27C281.05,92.48,275.16,85.33,265,78.55Z" style="fill:#FF8326"></path><path d="M265,78.55l0,0C249,67.89,224.76,67.3,208,73.36c-30,10.84-26,35-52,52s-51,11-76,33.06-27.26,63.81-17,83.34,22,33.86,12,67.47-9,72.65,31,93.2,71-23.26,97-14.25,75,48.9,129,37,30-52.84,65-64.49,55-51.87,43-94.34S398,215.71,405,189c5.28-20.17,12.36-39.58-1.1-59C386.53,104.94,356.8,94.19,328,96.73c-10.73,1-23,1.33-34.21-1.27C281.05,92.48,275.16,85.33,265,78.55Z" style="fill:#fff;opacity:0.7000000000000001"></path><path d="M419.69,227.42,251.52,267.25l-.16-.11,153.25-76.4c.12-.58.23-1.16.39-1.76,2.45-9.37,5.29-18.58,6.28-27.7L251.45,266.37l-.18,0L392.74,117.25a77.78,77.78,0,0,0-21.06-13.61L251.09,265.57l-.19,0L324.19,97a119.14,119.14,0,0,1-23.32-.34L250.48,264.94l-.18.09L261.83,76.62a60,60,0,0,0-23.46-6.8l11.31,194.74-.13.14L194.92,80.27c-7.72,5.77-12.07,13-16.72,20.46l70.61,163.75-.08.17-100-135.11a108.11,108.11,0,0,1-21,7.74L248,264.69v.2L83.14,155.8c-1,.83-2.09,1.69-3.14,2.61a61.12,61.12,0,0,0-12.92,16.27l180.15,90.51.06.18L57.47,219.8C58.06,228.33,60,236,63,241.75c.5,1,1,1.9,1.51,2.83L246.72,265.9l.11.16-168,19.14a78.74,78.74,0,0,1-3.23,22l170.92-40.48.16.11L70.57,354.64A63,63,0,0,0,78.76,378L246.55,267.63l.18,0L115.33,406.14c10.49,3,20.34,2,29.63-.81l101.95-136.9.19,0L195.56,386.93a22.86,22.86,0,0,1,7.44,1.24,83.63,83.63,0,0,1,7.87,3.26l36.65-122.37.18-.09-8.39,137.14c5.51,2.81,11.34,5.64,17.43,8.28l-8.42-144.95.13-.14L294.87,426a104.63,104.63,0,0,0,22.31,1.17l-68-157.67.08-.17,107.44,145.2c6.77-5.26,10.56-11.54,13.37-18L250,269.31v-.2l141.66,93.76a39.33,39.33,0,0,1,5.29-2.2,63.76,63.76,0,0,0,18-9.37L250.77,268.81l-.06-.18,189.52,45.49a82.13,82.13,0,0,0,3.25-23.53L251.28,268.1l-.11-.16,181.35-20.66A133.44,133.44,0,0,0,419.69,227.42Zm-173.08,39.3.58-.14-.43.22Zm.22.86-.18,0,.51-.34Zm.32.7-.16,0,.36-.48ZM247,266l-.11-.12.6.07Zm.74,2.8-.14.09.17-.58Zm-.29-3.44-.06-.15.54.27Zm2.28-.71,0,.6-.14-.46Zm-.83-.1.24.56-.29-.39Zm-.81.2.41.44-.4-.27Zm.26,4.52,0-.6.14.46Zm.83.1-.24-.56.29.39Zm-.09-1.57-.29,0-.26-.13-.2-.21-.11-.27,0-.29.08-.28.18-.23.24-.16.28-.07.29,0,.26.13.2.21.11.27,0,.29-.08.28-.18.23-.24.16Zm.49.93.4.27v.17Zm1.63-2.35.18,0-.51.34Zm-.32-.7.16,0-.36.48Zm-.55-.56.14-.09-.17.57Zm-.19,3.32.48.12.06.15Zm.44-.47L251,268l.11.12Zm.26-.59.43-.22.15.08Z" style="fill:#fff"></path></g><g id="freepik--Shadow--inject-124"><ellipse cx="247" cy="425.06" rx="156.5" ry="8.06" style="fill:#263238"></ellipse></g><g id="freepik--Shield--inject-124"><path d="M250.63,163.93c-13.32,12.67-47.39,25.47-87.12,52.62,0,0,2.48,91.74,87.12,141.89Z" style="fill:#FF8326;stroke:#263238;stroke-linecap:round;stroke-linejoin:round"></path><path d="M250.63,163.93c13.31,12.67,47.39,25.47,87.12,52.62,0,0-2.48,91.74-87.12,141.89Z" style="fill:#263238;stroke:#263238;stroke-linecap:round;stroke-linejoin:round"></path><path d="M250.63,171.74c-16.07,11.39-43.92,22.25-80.73,47.4,0,0,2.3,85,80.73,131.49,78.43-46.47,80.73-131.49,80.73-131.49C294.54,194,266.82,183.13,250.63,171.74Z" style="fill:#263238;stroke:#263238;stroke-linecap:round;stroke-linejoin:round"></path><path d="M317.6,210.11c-56.16,17-99,66.35-118.48,92.38a160.89,160.89,0,0,0,51.51,48.14c78.43-46.47,80.73-131.49,80.73-131.49Q324.25,214.3,317.6,210.11Z" style="fill:#FF8326;stroke:#263238;stroke-linecap:round;stroke-linejoin:round"></path><path d="M281.21,257.45H221a5,5,0,0,1-5-5V224.11a35.09,35.09,0,0,1,70.17,0v28.34A5,5,0,0,1,281.21,257.45Zm-55.17-10h50.17V224.11a25.09,25.09,0,0,0-50.17,0Z" style="fill:#fff;stroke:#263238;stroke-linecap:round;stroke-linejoin:round"></path><rect x="212.33" y="243.79" width="76.6" height="64.73" style="fill:#fff;stroke:#263238;stroke-linecap:round;stroke-linejoin:round"></rect><path d="M258.59,270.67a8.34,8.34,0,1,0-12.3,7.34l-1.4,14.7h10.72l-1.4-14.7A8.32,8.32,0,0,0,258.59,270.67Z" style="fill:#263238;stroke:#263238;stroke-linecap:round;stroke-linejoin:round"></path></g></svg>