<svg width="37" height="62" viewBox="0 0 37 62" fill="none" xmlns="http://www.w3.org/2000/svg">
<path d="M30.0619 42.4005C29.5716 42.3911 28.8785 42.0928 28.3024 41.5188C26.0702 39.2945 23.839 37.0691 21.6068 34.8437C20.29 33.5321 18.967 32.2267 17.6596 30.9058C17.4351 30.6789 17.3017 30.6696 17.072 30.8996C14.9453 33.0276 12.8031 35.14 10.6754 37.267C9.48272 38.4594 7.76254 38.4708 6.57092 37.2815C4.70696 35.4208 2.83885 33.5632 0.970748 31.7077C-0.574626 30.1733 -0.227072 27.7491 1.6731 26.826C2.753 26.3017 4.07494 26.5214 4.96762 27.3916C6.0951 28.4908 7.21948 29.5942 8.33041 30.71C8.55591 30.9359 8.68107 30.939 8.91174 30.7079C11.0012 28.6152 13.1093 26.5411 15.2008 24.4504C16.4028 23.2496 18.1788 23.1657 19.4015 24.3478C21.1641 26.0531 22.8801 27.806 24.6179 29.5372C27.1604 32.0703 29.7009 34.6044 32.2486 37.1323C33.073 37.9507 33.4878 38.9008 33.256 40.0725C32.983 41.4722 31.811 42.417 30.0619 42.4005Z" fill="#252525"/>
<path d="M6.11904 19.8234C6.17386 18.9179 6.56072 18.2621 7.14101 17.6912C8.30677 16.5454 9.51183 15.4348 10.6103 14.2268C12.0306 12.6634 13.6204 11.2762 15.0737 9.75221C15.5433 9.2601 16.0502 8.87056 16.7225 8.68097C17.6018 8.43336 18.6662 8.79389 19.2909 9.47974C19.6468 9.87032 20.0657 10.2205 20.466 10.5748C21.0835 11.1208 21.6328 11.731 22.2151 12.3101C23.1626 13.2509 24.1163 14.1843 25.067 15.1209C25.1497 15.2017 25.2407 15.2763 25.3131 15.3654C25.579 15.6907 25.8014 15.7073 26.0734 15.3985C27.4223 13.8652 28.9511 12.5091 30.3506 11.0244C30.844 10.5013 31.3343 9.96667 31.8815 9.5046C33.6213 8.03346 36.0408 8.48309 36.7752 10.7022C37.1796 11.9227 36.7183 12.9877 35.8122 13.8776C34.7571 14.9126 33.7258 15.9735 32.68 17.0189C31.9622 17.7368 31.235 18.4444 30.5192 19.1645C29.6141 20.0751 28.707 20.9847 27.8174 21.9109C26.6227 23.1542 24.708 23.148 23.5092 21.9182C22.3538 20.733 21.159 19.5861 19.9881 18.4165C19.2827 17.712 18.5896 16.994 17.8924 16.2812C17.3949 15.7715 17.3452 15.7673 16.8549 16.2605C14.9837 18.1388 13.1187 20.0223 11.2434 21.8964C9.908 23.2298 7.99542 23.1086 6.88552 21.8747C6.35488 21.28 6.06111 20.5714 6.11904 19.8234Z" fill="#EC9902"/>
<path d="M22.4066 4.1546C22.3901 1.88778 24.2437 0.0208767 26.5286 0.000156307C28.8043 -0.0195281 30.6879 1.82252 30.7127 4.09347C30.7376 6.38929 28.8984 8.31525 26.6672 8.33079C24.2778 8.34633 22.4221 6.52708 22.4066 4.1546Z" fill="#252525"/>
<path d="M18.8619 50.8976C18.2599 51.2105 17.6485 51.4415 16.9441 51.3016C16.2273 51.1597 15.3284 50.4407 15.2674 49.5083C15.2022 48.5127 15.2777 47.6041 16.0411 46.8675C17.0103 45.932 18.3054 45.9123 19.3573 46.3505C20.0049 46.6199 20.3369 47.2094 20.3607 47.8931C20.4 49.068 20.3866 50.2449 20.3617 51.4208C20.3452 52.2475 19.437 53.1592 18.4936 53.353C18.443 53.3633 18.3912 53.3654 18.3405 53.3747C16.9131 53.6596 16.8241 53.6265 15.8818 52.5366C15.7122 52.3408 15.8259 52.2942 15.9977 52.2745C16.4073 52.2268 16.8241 52.2175 17.2275 52.1377C17.9651 51.9916 18.6343 51.715 18.9788 50.9681C19.0108 50.9256 19.0346 50.88 18.9767 50.8427C18.9146 50.8033 18.8908 50.8593 18.8619 50.8976ZM18.8122 48.7344C18.8133 48.7344 18.8143 48.7344 18.8153 48.7344C18.8153 48.5541 18.8184 48.3739 18.8143 48.1936C18.804 47.6362 18.4864 47.3834 17.9361 47.4912C17.0755 47.66 16.5231 48.5375 16.7372 49.3943C16.8655 49.9061 17.4603 50.0905 17.8151 49.6937C18.052 49.4285 18.2588 49.3923 18.5381 49.5653C18.7471 49.6948 18.8133 49.5995 18.8122 49.3923C18.8112 49.1726 18.8122 48.954 18.8122 48.7344Z" fill="#252525"/>
<path d="M14.1152 47.6404C14.0542 48.3159 14.2042 49.066 13.9642 49.8047C13.6745 50.6946 13.0053 51.282 12.0775 51.3204C11.2655 51.3535 10.4514 51.3566 9.63837 51.3307C8.36193 51.2903 7.47753 50.4222 7.41443 49.1095C7.36375 48.0642 7.39478 47.0157 7.38237 45.9693C7.3803 45.7673 7.45477 45.6896 7.65234 45.6938C8.0392 45.702 8.4271 45.7134 8.81396 45.6948C9.07256 45.6834 9.146 45.7766 9.14186 46.0284C9.12738 46.9722 9.13255 47.916 9.13255 48.8588C9.13255 49.5975 9.37149 49.9062 10.0976 50.0098C10.6086 50.0823 11.1279 50.0792 11.6347 49.9394C12.1478 49.7974 12.3392 49.555 12.3423 49.0204C12.3495 48.0383 12.3557 47.0561 12.3412 46.074C12.3371 45.7943 12.4022 45.671 12.7053 45.6917C13.0653 45.7155 13.4284 45.7124 13.7894 45.6938C14.0418 45.6813 14.1307 45.7601 14.1214 46.0211C14.1017 46.5381 14.1152 47.0561 14.1152 47.6404Z" fill="#252525"/>
<path d="M30.6767 50.0272C30.8815 50.0376 31.0884 50.0707 31.2922 50.0552C31.7628 50.021 32.0008 49.8096 32.1321 49.3548C32.3224 48.698 32.5128 48.0412 32.7041 47.3843C33.1893 45.7267 35.047 45.0512 36.3969 46.0406C36.7838 46.3245 37.0072 46.6881 36.9999 47.1885C36.9875 48.0412 36.9979 48.8938 36.9875 49.7454C36.9793 50.4406 36.6296 50.9109 35.9945 51.173C35.077 51.5512 34.115 51.3492 33.4685 50.6188C33.2772 50.4012 33.2131 50.4613 33.0993 50.6726C32.8593 51.1181 32.4931 51.3461 31.9656 51.3274C31.3863 51.3067 30.805 51.3181 30.2247 51.3336C29.9589 51.3409 29.8327 51.2528 29.8689 50.9793C29.873 50.9679 29.8803 50.9555 29.8813 50.943C29.8927 50.6861 29.8254 50.3898 29.933 50.1836C30.0747 49.9101 30.4357 50.1443 30.6767 50.0272ZM35.5384 48.4442C35.5373 48.4442 35.5353 48.4442 35.5342 48.4442C35.5342 48.1085 35.5415 47.7728 35.5321 47.4382C35.5249 47.1761 35.3811 47.0486 35.1132 47.0352C34.8081 47.0196 34.5753 47.1419 34.4398 47.3999C34.2961 47.6723 34.1957 47.9666 34.0737 48.2504C34.0209 48.3747 34.0261 48.4846 34.1647 48.5384C34.5216 48.6783 34.5598 48.9031 34.4026 49.2336C34.3054 49.4377 34.3136 49.6636 34.5143 49.8345C34.7336 50.022 34.9746 49.9661 35.2084 49.8863C35.4453 49.8065 35.5415 49.6211 35.5384 49.3745C35.5353 49.0647 35.5384 48.7539 35.5384 48.4442Z" fill="#252525"/>
<path d="M10.9873 59.5607C11.4124 59.5451 11.8407 59.5565 12.2627 59.5089C12.7789 59.4498 12.8926 59.2934 12.9082 58.7764C12.9226 58.2729 12.9019 57.7694 12.9361 57.2648C12.9557 56.9716 13.0654 56.8711 13.3395 56.9053C13.416 56.9147 13.4957 56.9178 13.5712 56.9084C13.8898 56.8701 14.0098 57.0058 13.9994 57.327C13.9818 57.8699 13.987 58.4127 13.9984 58.9556C14.0036 59.1835 13.9167 59.4778 14.2777 59.543C14.5528 59.5928 14.978 59.3731 15.0824 59.1203C15.1662 58.9162 15.1983 58.6987 15.1973 58.477C15.1952 58.0636 15.2024 57.6492 15.1952 57.2358C15.191 57.012 15.2728 56.8908 15.5096 56.9074C15.5738 56.9115 15.64 56.9147 15.7031 56.9064C16.0641 56.8587 16.2172 56.9841 16.1903 57.3767C16.1551 57.8916 16.1737 58.4107 16.183 58.9276C16.1872 59.1763 16.152 59.4892 16.5058 59.5244C16.8947 59.5638 17.0602 59.3628 17.0633 58.9142C17.0664 58.3713 17.0798 57.8274 17.055 57.2855C17.0374 56.8794 17.2898 56.9084 17.5577 56.9022C17.8236 56.896 18.0491 56.896 18.0397 57.2679C18.0263 57.8367 18.0387 58.4055 18.0429 58.9743C18.0439 59.2001 18.0511 59.4488 18.3521 59.4602C18.6624 59.4726 18.7721 59.2654 18.7721 58.9784C18.7711 58.4221 18.7907 57.8657 18.7711 57.3104C18.7597 57.011 18.8507 56.895 19.159 56.896C19.792 56.8991 19.8106 56.8867 19.8003 57.5311C19.791 58.1745 19.8748 58.824 19.7227 59.4622C19.2852 59.5347 19.3348 59.8891 19.2996 60.1947C18.8186 60.3884 18.3397 60.4589 17.8577 60.1885C17.7449 60.1253 17.6188 60.1429 17.4853 60.174C16.8233 60.3263 16.1716 60.4433 15.4838 60.203C15.2138 60.1087 14.858 60.2724 14.5394 60.3014C14.2187 60.3315 13.8888 60.3553 13.685 60.0217C13.6188 59.9139 13.5588 59.9751 13.4978 60.0144C12.7054 60.5273 11.8376 60.3304 10.9863 60.2838C10.8239 60.0414 10.8197 59.801 10.9873 59.5607Z" fill="#EC9902"/>
<path d="M26.4927 51.2976C26.1783 51.3825 26.2683 51.1349 26.26 50.9961C26.2455 50.7764 26.1731 50.7402 26.0066 50.88C25.5318 51.281 24.9722 51.3556 24.3743 51.3411C23.5106 51.3193 22.6459 51.3235 21.7821 51.3338C21.4873 51.3369 21.3798 51.2509 21.3849 50.9349C21.3974 50.0574 21.3818 50.0574 22.259 50.0605C22.8652 50.0626 23.4713 50.0616 24.0775 50.0616C24.785 50.0605 25.1408 49.758 25.1811 49.0577C25.2111 48.5449 25.2246 48.0279 25.0715 47.5213C24.9556 47.1369 24.7177 46.9463 24.3247 46.9069C23.5696 46.8302 22.9386 47.0924 22.3697 47.57C22.228 47.6891 22.0676 47.9201 21.8959 47.8445C21.7097 47.7627 21.8421 47.4954 21.8111 47.313C21.7956 47.225 21.807 47.1328 21.807 47.0426C21.8059 46.2117 21.7966 46.1817 22.5848 45.9444C23.3896 45.702 24.2099 45.5663 25.057 45.8067C25.9911 46.0729 26.5455 46.679 26.6645 47.6673C26.7555 48.4257 26.7027 49.1903 26.7276 49.9518C26.5289 50.101 26.4648 50.2988 26.4814 50.5433C26.499 50.793 26.4907 51.0458 26.4927 51.2976Z" fill="#252525"/>
<path d="M26.4926 51.2976C26.4895 51.0458 26.4988 50.793 26.4813 50.5423C26.4647 50.2978 26.5288 50.0989 26.7274 49.9508C27.1784 50.189 27.6584 50.1176 28.1032 49.9922C28.7828 49.7995 28.9514 49.5001 28.9483 48.7718C28.9441 47.9212 28.9534 47.0696 28.9379 46.219C28.9317 45.8564 29.0641 45.6927 29.4365 45.7165C29.7189 45.7342 30.0033 45.7321 30.2857 45.7155C30.5888 45.6979 30.6881 45.8212 30.685 46.1216C30.6716 47.4239 30.6778 48.7262 30.6767 50.0285C30.4347 50.1455 30.0737 49.9114 29.932 50.1839C29.8244 50.39 29.8916 50.6874 29.8802 50.9433C29.8792 50.9557 29.872 50.9681 29.8678 50.9795C29.752 50.9712 29.6299 50.9619 29.543 51.0531C29.331 51.2748 29.0538 51.3266 28.7735 51.3421C28.0132 51.3836 27.2508 51.4633 26.4926 51.2976Z" fill="#EC9902"/>
<path d="M4.6921 57.5952C4.6921 56.8193 4.70555 56.0433 4.6859 55.2673C4.67762 54.9658 4.79554 54.8726 5.06862 54.8954C5.17102 54.9037 5.27653 54.9109 5.3779 54.8975C5.67581 54.8591 5.75132 54.9959 5.74925 55.2756C5.73684 56.5302 5.75856 57.7848 5.73373 59.0384C5.72649 59.4217 5.84855 59.545 6.21472 59.5026C6.45677 59.4746 6.70606 59.5057 6.95017 59.4839C7.30393 59.4528 7.51908 59.2808 7.51288 58.8861C7.50357 58.3173 7.52012 57.7486 7.51081 57.1798C7.50667 56.9488 7.58011 56.8576 7.82216 56.8607C8.74173 56.8742 8.56899 56.7644 8.57519 57.5745C8.5783 58.0014 8.58864 58.4282 8.57726 58.855C8.5514 59.8351 8.04869 60.321 7.07326 60.3231C6.40195 60.3241 5.72959 60.3106 5.05931 60.3293C4.77485 60.3376 4.67452 60.2557 4.68176 59.9605C4.70038 59.1721 4.68797 58.3826 4.68797 57.5942C4.68797 57.5952 4.69003 57.5952 4.6921 57.5952Z" fill="#252525"/>
<path d="M19.2996 60.1937C19.3358 59.8891 19.2851 59.5338 19.7226 59.4612C19.8985 59.5182 20.0785 59.5151 20.2595 59.4985C20.486 59.4778 20.635 59.3866 20.696 59.1401C20.8015 58.7143 20.9422 58.2978 21.0663 57.8761C21.3476 56.9168 22.0355 56.6671 23.0244 56.9251C23.4733 57.0421 23.6833 57.3933 23.6843 57.8606C23.6854 58.3133 23.674 58.7661 23.6843 59.2188C23.6947 59.6788 23.5323 60.0445 23.0906 60.2061C22.6158 60.3792 22.111 60.4424 21.7055 60.059C21.4707 59.8363 21.3352 59.7824 21.1625 60.0953C21.1004 60.2082 20.9753 60.2735 20.8398 60.2901C20.3764 60.345 19.9119 60.3336 19.4485 60.3056C19.3978 60.3015 19.3502 60.232 19.2996 60.1937ZM22.7979 58.5402C22.801 58.5402 22.8041 58.5402 22.8082 58.5402C22.8082 58.4118 22.8051 58.2822 22.8092 58.1538C22.8154 57.9518 22.8082 57.7518 22.5651 57.6896C22.3551 57.6358 22.1948 57.758 22.1255 57.9259C22.0355 58.1445 21.7511 58.3807 21.9755 58.6117C22.1224 58.763 22.1359 58.8593 22.0934 59.0334C22.0428 59.2395 22.0779 59.4405 22.3345 59.4706C22.5806 59.4996 22.771 59.397 22.7937 59.1204C22.8113 58.9277 22.7979 58.734 22.7979 58.5402Z" fill="#252525"/>
<path d="M4.09418 58.137C4.05798 58.5691 4.16866 59.0632 3.9473 59.5357C3.71456 60.0319 3.33804 60.294 2.80016 60.3137C2.33572 60.3303 1.87025 60.3344 1.40684 60.3189C0.632085 60.293 0.10248 59.8309 0.0373132 59.0632C-0.0175094 58.4209 0.010419 57.7724 7.51466e-05 57.1259C-0.00302802 56.9425 0.0900662 56.8876 0.262809 56.8731C1.04998 56.8057 1.06446 56.8151 1.06343 57.5952C1.06343 58.022 1.06032 58.4489 1.06549 58.8747C1.07067 59.287 1.2372 59.4673 1.64682 59.4911C1.89094 59.5056 2.13712 59.5067 2.38227 59.4932C2.84774 59.4683 3.0298 59.2849 3.04221 58.8115C3.05566 58.2686 3.05772 57.7257 3.04738 57.1829C3.04324 56.9435 3.13634 56.8679 3.36804 56.8741C4.26899 56.8969 4.07246 56.7881 4.09521 57.5797C4.09832 57.7485 4.09418 57.9164 4.09418 58.137Z" fill="#252525"/>
<path d="M10.9871 59.5605C10.8185 59.8009 10.8237 60.0412 10.9861 60.2816C10.862 61.0949 10.5682 61.4492 9.89276 61.6015C9.55762 61.6771 9.07249 61.273 9.08801 60.9312C9.09422 60.7861 9.21834 60.7913 9.30937 60.7602C9.86587 60.5665 9.9269 60.494 9.93104 59.8993C9.93724 59.0207 9.94034 58.1412 9.92276 57.2626C9.91655 56.9694 10.0252 56.8596 10.3034 56.8814C10.3934 56.8886 10.4855 56.8938 10.5744 56.8834C10.8723 56.8482 10.984 56.9601 10.9778 57.273C10.9634 58.0355 10.982 58.798 10.9871 59.5605Z" fill="#252525"/>
<path d="M10.5837 53.354C9.69726 53.3167 9.66312 53.5539 9.67243 52.4247C9.67553 52.088 9.81311 51.9564 10.1327 51.9595C10.4555 51.9626 10.7772 51.9595 11.0999 51.9491C11.3233 51.9419 11.4423 52.0289 11.434 52.2631C11.4309 52.3408 11.4361 52.4185 11.4371 52.4951C11.4474 53.3571 11.4474 53.3571 10.5837 53.354Z" fill="#EC9902"/>
<path d="M29.69 45.1362C28.7746 45.1414 28.9008 45.2046 28.8863 44.325C28.877 43.7459 28.9194 43.7189 29.5007 43.7241C29.6424 43.7251 29.7841 43.7293 29.9258 43.7293C30.5341 43.7262 30.5341 43.7314 30.5361 44.3219C30.5413 45.2719 30.5889 45.101 29.69 45.1362Z" fill="#EC9902"/>
<path d="M17.4984 55.3275C17.1292 55.4321 16.9823 55.284 16.9719 54.9338C16.9637 54.6479 17.0568 54.4759 17.365 54.507C17.6391 54.5339 18.0198 54.364 18.0342 54.8913C18.0446 55.313 17.846 55.4135 17.4984 55.3275Z" fill="#EC9902"/>
<path d="M2.5498 56.0702C2.24776 56.0608 1.97261 56.095 1.98192 55.7221C1.98916 55.4247 2.255 55.2527 2.65013 55.26C3.03906 55.2672 2.96872 55.5449 2.977 55.7821C2.98941 56.1758 2.70289 56.0598 2.5498 56.0702Z" fill="#EC9902"/>
<path d="M12.549 56.5457C12.2945 56.5788 12.0515 56.4928 12.0525 56.1624C12.0535 55.722 12.4218 55.7966 12.7021 55.7645C13.03 55.7262 13.1262 55.8909 13.1024 56.1924C13.0745 56.5312 12.8479 56.556 12.549 56.5457Z" fill="#EC9902"/>
<path d="M18.4307 56.5416C18.1865 56.5644 17.9973 56.5271 17.9879 56.1914C17.9776 55.8267 18.171 55.7646 18.4689 55.7667C18.7389 55.7687 18.9416 55.7936 18.9499 56.1489C18.9592 56.5426 18.7141 56.5437 18.4307 56.5416Z" fill="#EC9902"/>
<path d="M1.14589 55.347C1.47379 55.3864 1.78101 55.2776 1.77687 55.7055C1.77273 56.2038 1.40242 56.0588 1.13969 56.0857C0.948324 56.1054 0.739377 56.1116 0.757996 55.8039C0.776615 55.49 0.851091 55.2621 1.14589 55.347Z" fill="#EC9902"/>
<path d="M7.13727 61.611C6.92833 61.5954 6.66249 61.6835 6.66042 61.2981C6.65835 60.9458 6.82902 60.8588 7.14244 60.8712C7.41863 60.8816 7.64516 60.8723 7.64412 61.268C7.64309 61.6752 7.37725 61.5944 7.13727 61.611Z" fill="#EC9902"/>
<path d="M13.9187 56.4836C13.6053 56.493 13.3405 56.5095 13.3425 56.092C13.3446 55.7709 13.5722 55.7533 13.7522 55.7812C13.9673 55.8133 14.3293 55.66 14.319 56.1366C14.3128 56.4743 14.1566 56.5282 13.9187 56.4836Z" fill="#EC9902"/>
<path d="M5.93111 61.619C5.67045 61.6314 5.42426 61.6677 5.4253 61.2782C5.42633 60.9694 5.57632 60.8907 5.83388 60.9249C6.06972 60.957 6.40176 60.8078 6.409 61.273C6.4152 61.6708 6.16281 61.619 5.93111 61.619Z" fill="#EC9902"/>
<path d="M16.6279 56.5011C16.3776 56.5198 16.1841 56.4659 16.1934 56.1623C16.2017 55.8888 16.3476 55.7863 16.6155 55.8018C16.8627 55.8153 17.0882 55.8381 17.0944 56.1582C17.1016 56.4908 16.8699 56.5104 16.6279 56.5011Z" fill="#EC9902"/>
<path d="M12.667 50.8975C12.696 50.8592 12.7208 50.8032 12.7818 50.8436C12.8387 50.8809 12.8149 50.9265 12.7839 50.969C12.7446 50.9462 12.7053 50.9213 12.667 50.8975Z" fill="#F6F6F5"/>
</svg>
